<svg xmlns="http://www.w3.org/2000/svg" xmlns:xlink="http://www.w3.org/1999/xlink" width="500" zoomAndPan="magnify" viewBox="0 0 375 374.999991" height="500" preserveAspectRatio="xMidYMid meet" version="1.0"><defs><g/><clipPath id="id1"><path d="M 119.238281 112.253906 L 255.449219 112.253906 L 255.449219 188.753906 L 119.238281 188.753906 Z M 119.238281 112.253906 " clip-rule="nonzero"/></clipPath></defs><g clip-path="url(#id1)"><path fill="rgb(100%, 81.959534%, 0%)" d="M 247.140625 170.53125 C 248.164062 170.53125 249 171.367188 249 172.394531 C 249 173.421875 248.164062 174.257812 247.140625 174.257812 C 246.113281 174.257812 245.277344 173.421875 245.277344 172.394531 C 245.277344 171.367188 246.113281 170.53125 247.140625 170.53125 Z M 222.585938 170.773438 C 223.613281 170.773438 224.445312 171.609375 224.445312 172.648438 C 224.445312 173.675781 223.613281 174.511719 222.585938 174.511719 C 221.5625 174.511719 220.726562 173.675781 220.726562 172.648438 C 220.726562 171.609375 221.5625 170.773438 222.585938 170.773438 Z M 252.191406 182.03125 C 253.214844 182.03125 254.050781 182.867188 254.050781 183.894531 C 254.050781 184.929688 253.214844 185.769531 252.191406 185.769531 C 251.164062 185.769531 250.320312 184.929688 250.320312 183.894531 C 250.320312 182.867188 251.164062 182.03125 252.191406 182.03125 Z M 199.320312 145.691406 L 175.464844 145.691406 L 175.464844 131.980469 C 175.464844 125.390625 180.820312 120.027344 187.390625 120.027344 C 193.972656 120.027344 199.320312 125.390625 199.320312 131.980469 Z M 192.425781 181.550781 L 182.261719 181.550781 L 184.835938 163.917969 C 183.148438 163.011719 182.011719 161.242188 182.011719 159.195312 C 182.011719 156.242188 184.402344 153.855469 187.347656 153.855469 C 190.296875 153.855469 192.679688 156.242188 192.679688 159.195312 C 192.679688 161.242188 191.539062 163.011719 189.863281 163.917969 Z M 122.507812 185.769531 C 121.472656 185.769531 120.636719 184.929688 120.636719 183.894531 C 120.636719 182.867188 121.472656 182.03125 122.507812 182.03125 C 123.535156 182.03125 124.367188 182.867188 124.367188 183.894531 C 124.367188 184.929688 123.535156 185.769531 122.507812 185.769531 Z M 152.101562 174.511719 C 151.078125 174.511719 150.242188 173.675781 150.242188 172.648438 C 150.242188 171.609375 151.078125 170.773438 152.101562 170.773438 C 153.128906 170.773438 153.964844 171.609375 153.964844 172.648438 C 153.964844 173.675781 153.128906 174.511719 152.101562 174.511719 Z M 127.550781 174.257812 C 126.523438 174.257812 125.6875 173.421875 125.6875 172.394531 C 125.6875 171.367188 126.523438 170.53125 127.550781 170.53125 C 128.585938 170.53125 129.417969 171.367188 129.417969 172.394531 C 129.417969 173.421875 128.585938 174.257812 127.550781 174.257812 Z M 122.507812 163.105469 C 121.472656 163.105469 120.636719 162.269531 120.636719 161.242188 C 120.636719 160.214844 121.472656 159.378906 122.507812 159.378906 C 123.535156 159.378906 124.367188 160.214844 124.367188 161.242188 C 124.367188 162.269531 123.535156 163.105469 122.507812 163.105469 Z M 152.101562 157.4375 C 151.078125 157.4375 150.242188 156.597656 150.242188 155.570312 C 150.242188 154.542969 151.078125 153.707031 152.101562 153.707031 C 153.128906 153.707031 153.964844 154.542969 153.964844 155.570312 C 153.964844 156.597656 153.128906 157.4375 152.101562 157.4375 Z M 134.011719 157.4375 C 132.984375 157.4375 132.140625 156.597656 132.140625 155.570312 C 132.140625 154.542969 132.984375 153.707031 134.011719 153.707031 C 135.035156 153.707031 135.871094 154.542969 135.871094 155.570312 C 135.871094 156.597656 135.035156 157.4375 134.011719 157.4375 Z M 122.507812 151.878906 C 121.472656 151.878906 120.636719 151.039062 120.636719 150.011719 C 120.636719 148.984375 121.472656 148.148438 122.507812 148.148438 C 123.535156 148.148438 124.367188 148.984375 124.367188 150.011719 C 124.367188 151.039062 123.535156 151.878906 122.507812 151.878906 Z M 129.515625 140.308594 C 128.488281 140.308594 127.65625 139.472656 127.65625 138.433594 C 127.65625 137.40625 128.488281 136.570312 129.515625 136.570312 C 130.539062 136.570312 131.382812 137.40625 131.382812 138.433594 C 131.382812 139.472656 130.539062 140.308594 129.515625 140.308594 Z M 148.035156 134.601562 C 147.007812 134.601562 146.171875 133.765625 146.171875 132.738281 C 146.171875 131.707031 147.007812 130.871094 148.035156 130.871094 C 149.058594 130.871094 149.894531 131.707031 149.894531 132.738281 C 149.894531 133.765625 149.058594 134.601562 148.035156 134.601562 Z M 128.53125 119.066406 C 127.507812 119.066406 126.671875 118.222656 126.671875 117.195312 C 126.671875 116.164062 127.507812 115.328125 128.53125 115.328125 C 129.566406 115.328125 130.402344 116.164062 130.402344 117.195312 C 130.402344 118.222656 129.566406 119.066406 128.53125 119.066406 Z M 246.15625 115.328125 C 247.183594 115.328125 248.015625 116.164062 248.015625 117.195312 C 248.015625 118.222656 247.183594 119.066406 246.15625 119.066406 C 245.128906 119.066406 244.296875 118.222656 244.296875 117.195312 C 244.296875 116.164062 245.128906 115.328125 246.15625 115.328125 Z M 226.65625 130.871094 C 227.679688 130.871094 228.515625 131.707031 228.515625 132.738281 C 228.515625 133.765625 227.679688 134.601562 226.65625 134.601562 C 225.628906 134.601562 224.792969 133.765625 224.792969 132.738281 C 224.792969 131.707031 225.628906 130.871094 226.65625 130.871094 Z M 245.175781 136.570312 C 246.199219 136.570312 247.035156 137.40625 247.035156 138.433594 C 247.035156 139.472656 246.199219 140.308594 245.175781 140.308594 C 244.148438 140.308594 243.3125 139.472656 243.3125 138.433594 C 243.3125 137.40625 244.148438 136.570312 245.175781 136.570312 Z M 252.191406 148.148438 C 253.214844 148.148438 254.050781 148.984375 254.050781 150.011719 C 254.050781 151.039062 253.214844 151.878906 252.191406 151.878906 C 251.164062 151.878906 250.320312 151.039062 250.320312 150.011719 C 250.320312 148.984375 251.164062 148.148438 252.191406 148.148438 Z M 240.6875 153.707031 C 241.714844 153.707031 242.546875 154.542969 242.546875 155.570312 C 242.546875 156.597656 241.714844 157.4375 240.6875 157.4375 C 239.652344 157.4375 238.820312 156.597656 238.820312 155.570312 C 238.820312 154.542969 239.652344 153.707031 240.6875 153.707031 Z M 222.585938 153.707031 C 223.613281 153.707031 224.445312 154.542969 224.445312 155.570312 C 224.445312 156.597656 223.613281 157.4375 222.585938 157.4375 C 221.5625 157.4375 220.726562 156.597656 220.726562 155.570312 C 220.726562 154.542969 221.5625 153.707031 222.585938 153.707031 Z M 252.191406 159.378906 C 253.214844 159.378906 254.050781 160.214844 254.050781 161.242188 C 254.050781 162.269531 253.214844 163.105469 252.191406 163.105469 C 251.164062 163.105469 250.320312 162.269531 250.320312 161.242188 C 250.320312 160.214844 251.164062 159.378906 252.191406 159.378906 Z M 249 161.949219 C 249.320312 163.414062 250.625 164.511719 252.191406 164.511719 C 253.988281 164.511719 255.449219 163.046875 255.449219 161.242188 C 255.449219 159.4375 253.988281 157.96875 252.191406 157.96875 C 250.625 157.96875 249.320312 159.074219 249 160.535156 L 214.308594 160.535156 L 214.308594 156.242188 L 219.394531 156.242188 C 219.699219 157.722656 221.023438 158.847656 222.585938 158.847656 C 224.386719 158.847656 225.855469 157.375 225.855469 155.570312 C 225.855469 153.769531 224.386719 152.296875 222.585938 152.296875 C 221.039062 152.296875 219.742188 153.382812 219.40625 154.839844 L 214.308594 154.839844 L 214.308594 150.542969 L 228.472656 150.542969 L 234.191406 156.277344 L 237.496094 156.277344 C 237.820312 157.742188 239.121094 158.847656 240.6875 158.847656 C 242.488281 158.847656 243.949219 157.375 243.949219 155.570312 C 243.949219 153.769531 242.488281 152.296875 240.6875 152.296875 C 239.121094 152.296875 237.820312 153.402344 237.496094 154.867188 L 234.765625 154.867188 L 229.054688 149.132812 L 214.128906 149.132812 C 213.554688 147.144531 211.71875 145.691406 209.554688 145.691406 L 207.085938 145.691406 L 207.085938 144.835938 L 235.203125 144.835938 L 241.0625 150.71875 L 249 150.71875 C 249.320312 152.183594 250.625 153.28125 252.191406 153.28125 C 253.988281 153.28125 255.449219 151.816406 255.449219 150.011719 C 255.449219 148.210938 253.988281 146.738281 252.191406 146.738281 C 250.625 146.738281 249.320312 147.84375 249 149.308594 L 241.644531 149.308594 L 235.785156 143.433594 L 207.085938 143.433594 L 207.085938 139.140625 L 241.984375 139.140625 C 242.304688 140.613281 243.609375 141.710938 245.175781 141.710938 C 246.972656 141.710938 248.433594 140.246094 248.433594 138.433594 C 248.433594 136.628906 246.972656 135.167969 245.175781 135.167969 C 243.609375 135.167969 242.304688 136.265625 241.984375 137.738281 L 207.085938 137.738281 L 207.085938 133.441406 L 223.464844 133.441406 C 223.785156 134.90625 225.097656 136.011719 226.65625 136.011719 C 228.457031 136.011719 229.925781 134.539062 229.925781 132.738281 C 229.925781 130.933594 228.457031 129.460938 226.65625 129.460938 C 225.097656 129.460938 223.785156 130.566406 223.464844 132.03125 L 207.085938 132.03125 L 207.085938 131.980469 C 207.085938 130.523438 206.929688 129.105469 206.625 127.734375 L 226.949219 127.734375 L 236.765625 117.898438 L 242.964844 117.898438 C 243.289062 119.363281 244.589844 120.46875 246.15625 120.46875 C 247.957031 120.46875 249.417969 118.996094 249.417969 117.195312 C 249.417969 115.390625 247.957031 113.925781 246.15625 113.925781 C 244.589844 113.925781 243.289062 115.023438 242.964844 116.496094 L 236.183594 116.496094 L 226.367188 126.332031 L 206.257812 126.332031 C 203.832031 118.195312 196.296875 112.253906 187.390625 112.253906 C 178.5 112.253906 170.960938 118.195312 168.527344 126.332031 L 148.328125 126.332031 L 138.503906 116.496094 L 131.722656 116.496094 C 131.402344 115.023438 130.097656 113.925781 128.53125 113.925781 C 126.734375 113.925781 125.273438 115.390625 125.273438 117.195312 C 125.273438 118.996094 126.734375 120.46875 128.53125 120.46875 C 130.097656 120.46875 131.402344 119.363281 131.722656 117.898438 L 137.921875 117.898438 L 147.746094 127.734375 L 168.160156 127.734375 C 167.863281 129.105469 167.699219 130.523438 167.699219 131.980469 L 167.699219 132.03125 L 151.222656 132.03125 C 150.902344 130.566406 149.597656 129.460938 148.035156 129.460938 C 146.234375 129.460938 144.773438 130.933594 144.773438 132.738281 C 144.773438 134.539062 146.234375 136.011719 148.035156 136.011719 C 149.597656 136.011719 150.902344 134.90625 151.222656 133.441406 L 167.699219 133.441406 L 167.699219 137.738281 L 132.707031 137.738281 C 132.382812 136.265625 131.078125 135.167969 129.515625 135.167969 C 127.714844 135.167969 126.253906 136.628906 126.253906 138.433594 C 126.253906 140.246094 127.714844 141.710938 129.515625 141.710938 C 131.078125 141.710938 132.382812 140.613281 132.707031 139.140625 L 167.699219 139.140625 L 167.699219 143.433594 L 138.90625 143.433594 L 133.042969 149.308594 L 125.6875 149.308594 C 125.367188 147.84375 124.0625 146.738281 122.507812 146.738281 C 120.707031 146.738281 119.238281 148.210938 119.238281 150.011719 C 119.238281 151.816406 120.707031 153.28125 122.507812 153.28125 C 124.0625 153.28125 125.367188 152.183594 125.6875 150.71875 L 133.628906 150.71875 L 139.488281 144.835938 L 167.699219 144.835938 L 167.699219 145.691406 L 165.238281 145.691406 C 163.066406 145.691406 161.238281 147.144531 160.667969 149.132812 L 145.644531 149.132812 L 139.921875 154.867188 L 137.191406 154.867188 C 136.871094 153.402344 135.566406 152.296875 134.011719 152.296875 C 132.210938 152.296875 130.742188 153.769531 130.742188 155.570312 C 130.742188 157.375 132.210938 158.847656 134.011719 158.847656 C 135.566406 158.847656 136.871094 157.742188 137.191406 156.277344 L 140.503906 156.277344 L 146.226562 150.542969 L 160.476562 150.542969 L 160.476562 154.839844 L 155.285156 154.839844 C 154.953125 153.382812 153.648438 152.296875 152.101562 152.296875 C 150.304688 152.296875 148.832031 153.769531 148.832031 155.570312 C 148.832031 157.375 150.304688 158.847656 152.101562 158.847656 C 153.675781 158.847656 154.988281 157.722656 155.300781 156.242188 L 160.476562 156.242188 L 160.476562 160.535156 L 125.6875 160.535156 C 125.367188 159.074219 124.0625 157.96875 122.507812 157.96875 C 120.707031 157.96875 119.238281 159.4375 119.238281 161.242188 C 119.238281 163.046875 120.707031 164.511719 122.507812 164.511719 C 124.0625 164.511719 125.367188 163.414062 125.6875 161.949219 L 160.476562 161.949219 L 160.476562 166.242188 L 147.746094 166.242188 L 142.304688 171.6875 L 130.742188 171.6875 C 130.417969 170.226562 129.113281 169.117188 127.550781 169.117188 C 125.75 169.117188 124.289062 170.589844 124.289062 172.394531 C 124.289062 174.199219 125.75 175.660156 127.550781 175.660156 C 129.113281 175.660156 130.417969 174.5625 130.742188 173.101562 L 142.886719 173.101562 L 148.328125 167.644531 L 160.476562 167.644531 L 160.476562 171.941406 L 155.292969 171.941406 C 154.972656 170.46875 153.660156 169.371094 152.101562 169.371094 C 150.304688 169.371094 148.832031 170.835938 148.832031 172.648438 C 148.832031 174.449219 150.304688 175.914062 152.101562 175.914062 C 153.660156 175.914062 154.972656 174.816406 155.292969 173.34375 L 160.476562 173.34375 L 160.476562 177.640625 L 134.695312 177.640625 L 129.160156 183.199219 L 125.6875 183.199219 C 125.367188 181.726562 124.0625 180.628906 122.507812 180.628906 C 120.707031 180.628906 119.238281 182.089844 119.238281 183.894531 C 119.238281 185.707031 120.707031 187.171875 122.507812 187.171875 C 124.0625 187.171875 125.367188 186.074219 125.6875 184.601562 L 129.730469 184.601562 L 135.277344 179.050781 L 160.476562 179.050781 L 160.476562 184.070312 C 160.476562 186.707031 162.605469 188.84375 165.238281 188.84375 L 209.554688 188.84375 C 212.179688 188.84375 214.308594 186.707031 214.308594 184.070312 L 214.308594 179.050781 L 239.410156 179.050781 L 244.957031 184.601562 L 249 184.601562 C 249.320312 186.074219 250.625 187.171875 252.191406 187.171875 C 253.988281 187.171875 255.449219 185.707031 255.449219 183.894531 C 255.449219 182.089844 253.988281 180.628906 252.191406 180.628906 C 250.625 180.628906 249.320312 181.726562 249 183.199219 L 245.539062 183.199219 L 239.992188 177.640625 L 214.308594 177.640625 L 214.308594 173.34375 L 219.394531 173.34375 C 219.71875 174.816406 221.03125 175.914062 222.585938 175.914062 C 224.386719 175.914062 225.855469 174.449219 225.855469 172.648438 C 225.855469 170.835938 224.386719 169.371094 222.585938 169.371094 C 221.03125 169.371094 219.71875 170.46875 219.394531 171.941406 L 214.308594 171.941406 L 214.308594 167.644531 L 226.367188 167.644531 L 231.800781 173.101562 L 243.949219 173.101562 C 244.269531 174.5625 245.574219 175.660156 247.140625 175.660156 C 248.9375 175.660156 250.398438 174.199219 250.398438 172.394531 C 250.398438 170.589844 248.9375 169.117188 247.140625 169.117188 C 245.574219 169.117188 244.269531 170.226562 243.949219 171.6875 L 232.386719 171.6875 L 226.949219 166.242188 L 214.308594 166.242188 L 214.308594 161.949219 L 249 161.949219 " fill-opacity="1" fill-rule="nonzero"/></g><g fill="rgb(0%, 0%, 0%)" fill-opacity="1"><g transform="translate(102.996144, 228.322339)"><g><path d="M 6.15625 -17.386719 L 6.15625 -19.265625 C 6.15625 -29.695312 8.976562 -34.113281 15.082031 -34.113281 L 15.410156 -34.113281 C 20.910156 -34.113281 23.210938 -30.871094 23.210938 -23.304688 L 26.6875 -23.304688 L 26.6875 -24.621094 C 26.6875 -32.890625 22.929688 -37.167969 15.128906 -37.167969 C 6.71875 -37.167969 2.679688 -31.953125 2.679688 -19.265625 L 2.679688 -17.386719 C 2.679688 -4.699219 6.71875 0.515625 15.128906 0.515625 C 22.929688 0.515625 26.6875 -3.757812 26.6875 -11.464844 L 26.6875 -11.933594 L 23.210938 -11.933594 C 23.210938 -5.875 20.910156 -2.539062 15.410156 -2.539062 L 15.082031 -2.539062 C 8.925781 -2.539062 6.15625 -6.953125 6.15625 -17.386719 Z M 6.15625 -17.386719 "/></g></g></g><g fill="rgb(0%, 0%, 0%)" fill-opacity="1"><g transform="translate(132.030089, 228.322339)"><g><path d="M 11.699219 -4.558594 L 4.605469 -24.902344 L 1.082031 -24.902344 L 10.007812 -0.941406 L 6.109375 9.398438 L 9.914062 9.398438 L 13.4375 -0.941406 L 22.367188 -24.902344 L 18.84375 -24.902344 Z M 11.699219 -4.558594 "/></g></g></g><g fill="rgb(0%, 0%, 0%)" fill-opacity="1"><g transform="translate(154.768651, 228.322339)"><g><path d="M 6.390625 -37.589844 L 3.101562 -37.589844 L 3.101562 -7.046875 L 2.820312 0 L 5.542969 0 L 6.015625 -3.382812 C 7.328125 -1.222656 9.632812 0.515625 13.4375 0.515625 C 20.25 0.515625 22.976562 -4.980469 22.976562 -11.886719 L 22.976562 -13.015625 C 22.976562 -19.921875 20.25 -25.421875 13.4375 -25.421875 C 9.960938 -25.421875 7.707031 -23.917969 6.390625 -22.039062 Z M 6.390625 -18.605469 C 7.378906 -20.25 9.304688 -22.460938 12.6875 -22.460938 C 17.386719 -22.460938 19.59375 -18.796875 19.59375 -13.015625 L 19.59375 -11.886719 C 19.59375 -6.109375 17.386719 -2.441406 12.6875 -2.441406 C 9.304688 -2.441406 7.378906 -4.652344 6.390625 -6.296875 Z M 6.390625 -18.605469 "/></g></g></g><g fill="rgb(0%, 0%, 0%)" fill-opacity="1"><g transform="translate(179.997173, 228.322339)"><g><path d="M 23.257812 -11.089844 L 23.257812 -12.96875 C 23.257812 -19.875 20.109375 -25.421875 12.828125 -25.421875 C 5.542969 -25.421875 2.300781 -19.875 2.300781 -12.96875 L 2.300781 -11.933594 C 2.300781 -5.027344 5.542969 0.515625 13.0625 0.515625 C 20.0625 0.515625 23.257812 -3.945312 23.257812 -7.800781 L 23.257812 -7.988281 L 20.109375 -7.988281 C 20.109375 -5.308594 18.042969 -2.253906 13.0625 -2.253906 C 8.082031 -2.253906 5.78125 -5.636719 5.636719 -11.089844 Z M 12.78125 -22.648438 C 17.527344 -22.648438 19.734375 -19.21875 19.921875 -13.8125 L 5.636719 -13.8125 C 5.78125 -19.21875 8.082031 -22.648438 12.78125 -22.648438 Z M 12.78125 -22.648438 "/></g></g></g><g fill="rgb(0%, 0%, 0%)" fill-opacity="1"><g transform="translate(205.554563, 228.322339)"><g><path d="M 12.96875 -25.421875 C 9.632812 -25.421875 7.328125 -23.683594 6.015625 -21.613281 L 5.542969 -24.902344 L 2.820312 -24.902344 L 3.101562 -17.855469 L 3.101562 0 L 6.390625 0 L 6.390625 -18.464844 C 7.425781 -20.109375 9.257812 -22.226562 13.015625 -22.226562 L 13.671875 -22.226562 L 13.671875 -25.375 C 13.625 -25.375 13.296875 -25.421875 12.96875 -25.421875 Z M 12.96875 -25.421875 "/></g></g></g><g fill="rgb(0%, 0%, 0%)" fill-opacity="1"><g transform="translate(221.19907, 228.322339)"><g><path d="M 18.890625 0.046875 C 18.890625 4.605469 17.152344 7.046875 12.359375 7.046875 C 7.707031 7.046875 5.921875 4.699219 5.921875 0 L 2.773438 0 L 2.773438 0.609375 C 2.773438 5.734375 5.214844 9.914062 12.40625 9.914062 C 19.5 9.914062 22.179688 5.828125 22.179688 0.234375 L 22.179688 -17.855469 L 22.460938 -24.902344 L 19.734375 -24.902344 L 19.265625 -21.566406 C 17.949219 -23.683594 15.648438 -25.421875 11.839844 -25.421875 C 5.074219 -25.421875 2.300781 -20.109375 2.300781 -13.859375 L 2.300781 -12.828125 C 2.300781 -6.484375 5.074219 -1.269531 11.839844 -1.269531 C 15.316406 -1.269531 17.527344 -2.679688 18.890625 -4.558594 Z M 18.890625 -18.605469 L 18.890625 -8.035156 C 17.855469 -6.4375 15.976562 -4.230469 12.546875 -4.230469 C 7.894531 -4.230469 5.636719 -7.613281 5.636719 -12.828125 L 5.636719 -13.859375 C 5.636719 -18.984375 7.894531 -22.460938 12.546875 -22.460938 C 15.976562 -22.460938 17.855469 -20.25 18.890625 -18.605469 Z M 18.890625 -18.605469 "/></g></g></g><g fill="rgb(0%, 0%, 0%)" fill-opacity="1"><g transform="translate(246.427592, 228.322339)"><g><path d="M 12.78125 0.515625 C 20.109375 0.515625 23.257812 -4.980469 23.257812 -11.886719 L 23.257812 -13.015625 C 23.257812 -19.921875 20.109375 -25.421875 12.78125 -25.421875 C 5.449219 -25.421875 2.300781 -19.921875 2.300781 -13.015625 L 2.300781 -11.886719 C 2.300781 -4.980469 5.449219 0.515625 12.78125 0.515625 Z M 12.78125 -2.441406 C 7.847656 -2.441406 5.636719 -6.203125 5.636719 -11.886719 L 5.636719 -13.015625 C 5.636719 -18.699219 7.847656 -22.460938 12.78125 -22.460938 C 17.714844 -22.460938 19.921875 -18.699219 19.921875 -13.015625 L 19.921875 -11.886719 C 19.921875 -6.203125 17.714844 -2.441406 12.78125 -2.441406 Z M 12.78125 -2.441406 "/></g></g></g></svg>